<?xml version="1.0" encoding="UTF-8" standalone="no"?>
<!DOCTYPE svg PUBLIC "-//W3C//DTD SVG 1.1//EN" "http://www.w3.org/Graphics/SVG/1.1/DTD/svg11.dtd">
<svg width="100%" height="100%" viewBox="0 0 600 400" version="1.1" xmlns="http://www.w3.org/2000/svg" xmlns:xlink="http://www.w3.org/1999/xlink" xml:space="preserve" xmlns:serif="http://www.serif.com/" style="fill-rule:evenodd;clip-rule:evenodd;stroke-linejoin:round;stroke-miterlimit:2;">
    <g id="Layer1">
        <rect x="-1028.23" y="-248.288" width="1712.17" height="4055.19" style="fill:#3d4345;"/>
        <rect x="-13.101" y="-13.059" width="626.202" height="426.201" style="fill:url(#_Radial1);"/>
        <g id="CorelEMF" serif:id="CorelEMF">
        </g>
        <g id="CorelEMF1" serif:id="CorelEMF">
        </g>
        <g>
            <g id="CorelEMF2" serif:id="CorelEMF">
            </g>
        </g>
        <g id="CorelEMF3" serif:id="CorelEMF">
        </g>
        <g id="CorelEMF4" serif:id="CorelEMF">
        </g>
        <path d="M299.942,76.634L283.625,86.391L299.942,95.731L302.13,86.182L299.942,76.634Z" style="fill:#ff8830;"/>
        <path d="M300.005,76.634L316.321,86.391L300.005,95.731L300.005,76.634Z" style="fill:#ffc498;"/>
        <path d="M354.619,110.189L370.301,117.115L370.301,143.513L330.311,122.473L354.619,110.189Z" style="fill:#da712d;"/>
        <path d="M350.306,93.461L363.118,97.801L370.301,107.291L370.301,117.246L355.55,108.449L327.907,121.886L319.985,118.135L299.942,126.851L296.839,117.194L299.942,110.189L330.311,96.206L350.306,93.461Z" style="fill:#ffc498;"/>
        <path d="M350.306,78.041L363.118,82.38L374.694,85.859L384.227,99.99L384.646,135.002L372.225,161.454L373.194,115.386L368.471,101.825L353.198,93.461L333.967,95.704L299.942,108.817L296.839,102.14L299.942,94.768L330.311,80.785L350.306,78.041Z" style="fill:#da712d;"/>
        <path d="M370.301,223.405L384.646,202.082L393.16,168.14L387.525,126.851L384.646,135.002L372.225,161.454L372.181,192.794L344.929,205.68L346.672,238.906L370.301,223.405Z" style="fill:#ffc498;"/>
        <path d="M324.334,249.922L322.035,232.313L300.005,220.373L293.225,171.753L300.005,124.304L317.609,117.268L372,143.441L372.225,161.454L372.181,192.794L344.929,205.68L346.672,238.906L324.334,249.922Z" style="fill:#ffc498;"/>
        <path d="M370.301,223.405L384.646,202.082L393.16,168.14L398.964,179.569L400.542,202.658L397.664,210.809L384.646,231.136L370.301,244.098L350.306,256.729L299.942,281.414L293.225,246.701L299.946,220.342L322.035,232.313L322.133,251.008L346.672,238.906L370.301,223.405Z" style="fill:#da712d;"/>
        <path d="M370.364,245.185L385.825,229.295L392.526,221.982L394.845,236.024L384.71,252.916L370.364,265.879L350.369,278.51L300.005,303.195L296.839,291.039L300.007,281.382L307.832,277.547L322.197,272.788L346.735,260.687L370.364,245.185Z" style="fill:#ffc498;"/>
        <path d="M370.364,267.676L385.825,251.785L392.526,244.473L394.845,258.515L384.71,275.407L370.364,288.369L350.369,301L300.005,322.418L297.646,312.578L300.007,303.873L307.832,300.037L322.197,295.279L346.735,283.177L370.364,267.676Z" style="fill:#da712d;"/>
        <path d="M245.328,110.189L229.646,117.115L229.646,143.513L269.635,122.473L245.328,110.189Z" style="fill:#bf4b00;"/>
        <path d="M249.64,93.461L236.829,97.801L229.646,107.291L229.646,117.246L244.396,108.449L272.04,121.886L279.962,118.135L300.005,126.851L300.005,110.189L269.635,96.206L249.64,93.461Z" style="fill:#ff8830;"/>
        <path d="M249.64,78.041L236.829,82.38L225.252,85.859L215.72,99.99L215.3,135.002L227.721,161.454L226.753,115.386L231.475,101.825L246.748,93.461L265.979,95.704L300.005,108.817L300.005,94.768L269.635,80.785L249.64,78.041Z" style="fill:#bf4b00;"/>
        <path d="M229.646,223.405L215.3,202.082L206.786,168.14L212.422,126.851L215.3,135.002L227.721,161.454L227.765,192.794L255.017,205.68L253.274,238.906L229.646,223.405Z" style="fill:#ff8830;"/>
        <path d="M275.612,249.922L277.912,232.313L299.942,220.373L299.942,124.304L282.338,117.268L227.947,143.441L227.721,161.454L227.765,192.794L255.017,205.68L253.274,238.906L275.612,249.922Z" style="fill:#ff8830;"/>
        <path d="M229.646,223.405L215.3,202.082L206.786,168.14L200.983,179.569L199.404,202.658L202.283,210.809L215.3,231.136L229.646,244.098L249.64,256.729L300.005,281.414L300,220.342L277.912,232.313L277.813,251.008L253.274,238.906L229.646,223.405Z" style="fill:#bf4b00;"/>
        <path d="M229.582,245.185L214.121,229.295L207.42,221.982L205.101,236.024L215.237,252.916L229.582,265.879L249.577,278.51L299.942,303.195L299.94,281.382L292.115,277.547L277.75,272.788L253.211,260.687L229.582,245.185Z" style="fill:#ff8830;"/>
        <path d="M229.582,267.676L214.121,251.785L207.42,244.473L205.101,258.515L215.237,275.407L229.582,288.369L249.577,301L299.942,322.418L299.94,303.873L292.115,300.037L277.75,295.279L253.211,283.177L229.582,267.676Z" style="fill:#bf4b00;"/>
        <path d="M204.221,163.688C194.682,179.939 192.787,199.564 204.05,219.456C202.792,225.203 201.85,232.203 204.089,240.16C199.984,258.74 198.89,290.575 299.023,325.519C300.568,326.058 302.261,325.241 302.801,323.696C303.34,322.15 302.523,320.457 300.977,319.917C221.749,292.269 208.658,267.987 208.759,250.592C218.573,266.437 242.896,285.047 299.023,304.634C300.568,305.173 302.261,304.356 302.801,302.81C303.34,301.265 302.523,299.572 300.977,299.032C217.397,269.865 207.42,244.445 208.886,226.904C223.428,246.704 251.667,266.395 299.023,282.921C300.568,283.46 302.261,282.643 302.801,281.097C303.34,279.551 302.523,277.858 300.977,277.319C250.439,259.682 222.362,238.729 209.994,218.094C209.864,217.708 209.655,217.353 209.382,217.051C201.066,202.567 200.446,188.269 205.183,175.421C209.669,207.321 228.813,229.936 253.17,242.56C254.623,243.313 256.415,242.745 257.168,241.291C257.922,239.838 257.353,238.046 255.9,237.293C220.809,219.104 197.707,178.737 217.423,118.893C217.935,117.338 217.088,115.66 215.533,115.148C213.978,114.635 212.3,115.482 211.788,117.037C206.164,134.108 203.86,149.674 204.221,163.688Z"/>
        <path d="M394.817,175.421C399.553,188.268 398.934,202.565 390.618,217.051C390.345,217.353 390.136,217.708 390.006,218.094C377.638,238.729 349.561,259.682 299.023,277.319C297.477,277.858 296.66,279.551 297.199,281.097C297.739,282.643 299.432,283.46 300.977,282.921C348.333,266.395 376.572,246.704 391.114,226.904C392.58,244.445 382.602,269.865 299.023,299.032C297.477,299.572 296.66,301.265 297.199,302.81C297.739,304.356 299.432,305.173 300.977,304.634C357.104,285.047 381.427,266.437 391.241,250.592C391.342,267.987 378.251,292.269 299.023,319.917C297.477,320.457 296.66,322.15 297.199,323.696C297.739,325.241 299.432,326.058 300.977,325.519C401.11,290.575 400.016,258.74 395.91,240.16C398.15,232.204 397.208,225.204 395.95,219.456C407.213,199.564 405.318,179.939 395.779,163.688C396.14,149.674 393.836,134.108 388.212,117.037C387.7,115.482 386.022,114.635 384.467,115.148C382.912,115.66 382.065,117.338 382.577,118.893C402.293,178.737 379.191,219.104 344.1,237.293C342.647,238.046 342.078,239.838 342.832,241.291C343.585,242.745 345.377,243.313 346.83,242.56C371.187,229.936 390.331,207.321 394.817,175.421Z"/>
        <path d="M300.005,74.397C299.557,74.396 299.101,74.497 298.673,74.711L281.494,83.301C271.721,79.561 261.161,76.943 251.351,76.536C239.295,76.037 228.364,78.889 221.018,86.617C214.933,93.018 211.199,102.848 211.613,117.266C212.005,130.913 216.128,148.867 225.466,172.114C226.076,173.633 227.805,174.371 229.325,173.761C230.844,173.15 231.582,171.421 230.971,169.902C221.977,147.512 217.921,130.24 217.544,117.096C217.189,104.723 220.096,96.198 225.318,90.704C231.54,84.159 240.895,82.041 251.105,82.464C267.3,83.135 285.64,90.259 298.4,98.199C298.459,98.237 298.52,98.273 298.582,98.307C299.03,98.551 299.518,98.668 300,98.667C300.482,98.668 300.97,98.551 301.418,98.307C301.48,98.273 301.541,98.237 301.6,98.199C314.36,90.259 332.7,83.135 348.895,82.464C359.105,82.041 368.46,84.159 374.682,90.704C379.904,96.198 382.811,104.723 382.456,117.096C382.079,130.24 378.023,147.512 369.029,169.902C368.418,171.421 369.156,173.15 370.675,173.761C372.195,174.371 373.924,173.633 374.534,172.114C383.872,148.867 387.995,130.913 388.387,117.266C388.801,102.848 385.067,93.018 378.982,86.617C371.636,78.889 360.705,76.037 348.649,76.536C338.841,76.943 328.283,79.56 318.512,83.299L301.336,74.711C300.908,74.497 300.453,74.396 300.005,74.397ZM300,106.924C282.034,97.759 264.499,91.168 251.208,91.03C243.701,90.952 237.454,92.891 232.943,97.208C228.508,101.452 225.662,108.094 225.265,117.844C225.198,119.48 226.472,120.862 228.108,120.929C229.744,120.996 231.126,119.722 231.192,118.086C231.51,110.295 233.501,104.885 237.044,101.495C240.51,98.178 245.38,96.902 251.147,96.962C264.068,97.097 281.152,103.859 298.638,112.893C299.074,113.119 299.54,113.225 300,113.225C300.46,113.225 300.926,113.119 301.362,112.893C318.848,103.859 335.932,97.097 348.853,96.962C354.62,96.902 359.49,98.178 362.956,101.495C366.499,104.885 368.49,110.295 368.808,118.086C368.874,119.722 370.256,120.996 371.892,120.929C373.528,120.862 374.802,119.48 374.735,117.844C374.338,108.094 371.492,101.452 367.057,97.208C362.546,92.891 356.299,90.952 348.792,91.03C335.501,91.168 317.966,97.759 300,106.924ZM311.294,86.323L300.005,80.678L288.711,86.325C292.736,88.163 296.541,90.159 300,92.227C303.461,90.158 307.268,88.161 311.294,86.323Z"/>
        <path d="M286.34,260.117L313.66,260.117C315.297,260.117 316.626,258.788 316.626,257.15C316.626,255.513 315.297,254.184 313.66,254.184L286.34,254.184C284.703,254.184 283.374,255.513 283.374,257.15C283.374,258.788 284.703,260.117 286.34,260.117ZM355.998,107.316L355.984,107.314C355.624,107.27 355.259,107.291 354.907,107.378C354.694,107.43 354.488,107.507 354.292,107.605L330.582,119.46L319.383,113.861C318.956,113.647 318.503,113.547 318.056,113.547L318.046,113.547C317.798,113.548 317.55,113.58 317.309,113.643C317.109,113.695 316.915,113.769 316.73,113.861L300.005,122.223L283.28,113.861C282.854,113.647 282.4,113.547 281.953,113.547L281.944,113.547C281.695,113.548 281.447,113.58 281.206,113.643C281.006,113.695 280.812,113.769 280.627,113.861L269.428,119.46L245.718,107.605C245.17,107.331 244.577,107.243 244.012,107.316L243.999,107.314C243.639,107.27 243.273,107.291 242.922,107.378C242.709,107.43 242.503,107.507 242.307,107.605L226.929,115.293C226.869,115.322 226.81,115.353 226.753,115.386C226.307,115.64 225.949,115.994 225.696,116.406C225.441,116.817 225.284,117.295 225.257,117.807C225.253,117.873 225.252,117.94 225.252,118.007L225.252,143.346C225.252,143.372 225.252,143.397 225.252,143.423L225.252,192.628C225.252,192.693 225.253,192.758 225.256,192.822C225.286,193.415 225.491,193.962 225.819,194.413L225.822,194.417C226.019,194.688 226.264,194.929 226.554,195.125C226.679,195.21 226.811,195.286 226.95,195.351L251.568,207.661L251.568,239.885C251.567,239.95 251.569,240.014 251.572,240.079C251.602,240.672 251.806,241.219 252.135,241.67L252.137,241.674C252.335,241.945 252.58,242.186 252.869,242.382C252.995,242.467 253.127,242.543 253.265,242.608L275.888,253.919C276.133,254.049 276.399,254.144 276.679,254.201L276.69,254.203C276.933,254.251 277.178,254.268 277.42,254.255C278.009,254.225 278.552,254.024 279.002,253.699C279.279,253.5 279.525,253.25 279.724,252.955C279.941,252.636 280.097,252.273 280.175,251.881L280.178,251.87C280.218,251.667 280.236,251.461 280.234,251.258L280.234,233.983L300,224.1L319.766,233.983L319.766,251.293C319.766,252.913 321.066,254.231 322.68,254.259C323.147,254.269 323.623,254.169 324.069,253.946L346.802,242.58C347.853,242.054 348.456,240.987 348.441,239.885L348.441,207.661L373.117,195.323C374.169,194.797 374.771,193.73 374.757,192.628L374.757,143.423C374.758,143.397 374.758,143.372 374.757,143.346L374.757,118.007C374.758,117.94 374.757,117.873 374.753,117.807C374.726,117.295 374.569,116.817 374.314,116.406C374.06,115.994 373.703,115.64 373.257,115.386C373.199,115.353 373.14,115.322 373.08,115.293L357.703,107.605C357.155,107.331 356.563,107.243 355.998,107.316ZM318.056,119.83L301.336,128.19C300.908,128.404 300.453,128.505 300.005,128.504C299.557,128.505 299.101,128.404 298.673,128.19L281.953,119.83L231.185,145.214L231.185,152.012L266.716,152.012L261.425,146.721C260.268,145.564 260.268,143.684 261.425,142.526C262.583,141.368 264.463,141.368 265.621,142.526L275.975,152.88C276.258,153.164 276.472,153.49 276.617,153.838L276.62,153.847C276.764,154.195 276.844,154.577 276.844,154.978L276.844,174.725C276.844,174.75 276.844,174.776 276.844,174.801L276.844,182.297C276.844,183.884 275.597,185.18 274.03,185.26L273.877,185.263C272.239,185.263 270.911,183.935 270.911,182.297L270.911,176.593L249.818,166.046C248.354,165.314 247.759,163.531 248.491,162.066C249.224,160.602 251.007,160.008 252.471,160.74L270.911,169.96L270.911,157.944L231.185,157.944L231.185,190.836L255.861,203.174C256.117,203.303 256.355,203.467 256.564,203.663C256.979,204.052 257.275,204.56 257.413,205.112C257.473,205.355 257.503,205.605 257.501,205.855L257.501,205.869L257.501,238.093L274.301,246.493L274.301,232.191C274.287,231.089 274.89,230.022 275.941,229.496L297.034,218.95L297.034,203.473L275.941,192.927C274.476,192.194 273.882,190.411 274.614,188.947C275.346,187.482 277.13,186.888 278.594,187.62L300,198.323L321.406,187.62C322.87,186.888 324.654,187.482 325.386,188.947C326.118,190.411 325.524,192.194 324.059,192.927L302.966,203.473L302.966,218.95L324.059,229.496C324.315,229.625 324.553,229.789 324.762,229.985C325.177,230.374 325.473,230.882 325.611,231.434C325.672,231.677 325.701,231.927 325.699,232.177L325.699,232.191L325.699,246.498L342.509,238.093L342.509,205.869C342.494,204.767 343.097,203.7 344.148,203.174L368.824,190.836L368.824,157.944L329.089,157.944L329.089,169.96L347.529,160.74C348.993,160.008 350.776,160.602 351.509,162.066C352.241,163.531 351.646,165.314 350.182,166.046L329.089,176.593L329.089,182.297C329.089,183.884 327.843,185.18 326.275,185.26L326.123,185.263C324.484,185.263 323.156,183.935 323.156,182.297L323.156,174.801C323.156,174.776 323.156,174.75 323.156,174.725L323.156,154.978C323.156,154.577 323.236,154.195 323.38,153.847L323.383,153.838C323.528,153.49 323.742,153.164 324.025,152.88L334.379,142.526C335.537,141.368 337.417,141.368 338.574,142.526C339.732,143.684 339.732,145.564 338.574,146.721L333.284,152.012L368.824,152.012L368.824,145.214L318.056,119.83ZM231.185,119.798L231.185,138.581L262.795,122.776L244.012,113.385L231.185,119.798ZM337.215,122.776L368.824,138.581L368.824,119.798L355.998,113.385L337.215,122.776Z"/>
        <path d="M286.34,182.222L313.664,182.222C315.303,182.222 316.631,183.55 316.631,185.188C316.631,186.827 315.303,188.155 313.664,188.155L286.34,188.155C284.702,188.155 283.374,186.827 283.374,185.188C283.374,183.55 284.702,182.222 286.34,182.222Z"/>
    </g>
    <defs>
        <radialGradient id="_Radial1" cx="0" cy="0" r="1" gradientUnits="userSpaceOnUse" gradientTransform="matrix(2.19595e-14,-366.128,358.626,2.24189e-14,300,200.041)"><stop offset="0" style="stop-color:#fff;stop-opacity:1"/><stop offset="1" style="stop-color:#eee;stop-opacity:1"/></radialGradient>
    </defs>
</svg>
